<?xml version="1.0" encoding="UTF-8" standalone="no"?>
<svg
   viewBox="0 0 263.40551 189.79702"
   version="1.1"
   id="svg1"
   sodipodi:docname="right_triangle_svg.svg"
   width="263.40552"
   height="189.79703"
   inkscape:version="1.3.2 (091e20e, 2023-11-25, custom)"
   xmlns:inkscape="http://www.inkscape.org/namespaces/inkscape"
   xmlns:sodipodi="http://sodipodi.sourceforge.net/DTD/sodipodi-0.dtd"
   xmlns="http://www.w3.org/2000/svg"
   xmlns:svg="http://www.w3.org/2000/svg">
  <sodipodi:namedview
     id="namedview1"
     pagecolor="#ffffff"
     bordercolor="#000000"
     borderopacity="0.25"
     inkscape:showpageshadow="2"
     inkscape:pageopacity="0.0"
     inkscape:pagecheckerboard="0"
     inkscape:deskcolor="#d1d1d1"
     showgrid="false"
     inkscape:zoom="2.7647875"
     inkscape:cx="129.48554"
     inkscape:cy="117.18803"
     inkscape:window-width="1718"
     inkscape:window-height="1360"
     inkscape:window-x="1713"
     inkscape:window-y="0"
     inkscape:window-maximized="0"
     inkscape:current-layer="svg1" />
  <defs
     id="defs1">
    <rect
       x="150.46364"
       y="117.91141"
       width="3.255223"
       height="42.317902"
       id="rect11" />
    <rect
       x="59.317398"
       y="92.231316"
       width="24.595018"
       height="17.722881"
       id="rect5" />
    <rect
       x="62.21093"
       y="66.551224"
       width="90.061172"
       height="49.190037"
       id="rect4" />
    <rect
       x="62.57262"
       y="85.720871"
       width="51.721878"
       height="28.211933"
       id="rect3" />
    <rect
       x="52.80695"
       y="103.08206"
       width="112.48604"
       height="56.062176"
       id="rect2" />
  </defs>
  <!-- Right-angled triangle flipped horizontally -->
  <polygon
     points="350,80 103.6,250 350,250 "
     fill="none"
     stroke="#000000"
     stroke-width="3"
     id="polygon1"
     transform="translate(-98.784521,-77.14273)" />
  <!-- Right angle marker -->
  <path
     d="m 251.21548,157.85727 h -15 v 15"
     fill="none"
     stroke="#000000"
     stroke-width="2"
     id="path1" />
  <text
     xml:space="preserve"
     style="fill:none;stroke-width:2.89134"
     x="45.892052"
     y="149.9995"
     id="text1"><tspan
       sodipodi:role="line"
       id="tspan1"
       x="45.892052"
       y="149.9995">y</tspan></text>
  <text
     xml:space="preserve"
     id="text11"
     style="font-family:Arial;-inkscape-font-specification:Arial;white-space:pre;shape-inside:url(#rect11);display:inline;fill:#000000;stroke-width:2.89134" />
  <g
     inkscape:label=""
     transform="translate(39.063137,158.42083)"
     id="g20">
    <g
       fill="#000000"
       fill-opacity="1"
       id="g19"
       transform="matrix(1.33333,0,0,1.33333,-3.05317,-2.501)">
      <g
         id="g18"
         transform="translate(1.993,6.2820001)">
        <path
           d="m 4.84375,-3.796875 c 0.046875,-0.140625 0.046875,-0.15625 0.046875,-0.234375 0,-0.171875 -0.140625,-0.265625 -0.296875,-0.265625 -0.09375,0 -0.25,0.0625 -0.34375,0.203125 -0.015625,0.0625 -0.109375,0.359375 -0.140625,0.546875 -0.078125,0.25 -0.140625,0.53125 -0.203125,0.796875 l -0.453125,1.796875 c -0.03125,0.140625 -0.46875,0.84375 -1.125,0.84375 -0.5,0 -0.609375,-0.4375 -0.609375,-0.8125 C 1.71875,-1.375 1.890625,-2 2.21875,-2.875 2.375,-3.28125 2.421875,-3.390625 2.421875,-3.59375 c 0,-0.4375 -0.3125,-0.8125 -0.8125,-0.8125 -0.953125,0 -1.3125,1.453125 -1.3125,1.53125 0,0.109375 0.09375,0.109375 0.109375,0.109375 0.109375,0 0.109375,-0.03125 0.15625,-0.1875 0.28125,-0.9375 0.671875,-1.234375 1.015625,-1.234375 0.078125,0 0.25,0 0.25,0.3125 0,0.25 -0.109375,0.515625 -0.171875,0.703125 -0.40625,1.0625 -0.578125,1.625 -0.578125,2.09375 0,0.890625 0.625,1.1875 1.21875,1.1875 0.390625,0 0.71875,-0.171875 1,-0.453125 -0.125,0.515625 -0.25,1.015625 -0.640625,1.546875 -0.265625,0.328125 -0.640625,0.625 -1.09375,0.625 -0.140625,0 -0.59375,-0.03125 -0.765625,-0.421875 0.15625,0 0.296875,0 0.421875,-0.125 C 1.328125,1.203125 1.421875,1.0625 1.421875,0.875 1.421875,0.5625 1.15625,0.53125 1.0625,0.53125 0.828125,0.53125 0.5,0.6875 0.5,1.171875 c 0,0.5 0.4375,0.875 1.0625,0.875 1.015625,0 2.046875,-0.90625 2.328125,-2.03125 z m 0,0"
           id="path17" />
      </g>
    </g>
  </g>
  <g
     inkscape:label=""
     transform="translate(254.26955,91.869598)"
     id="g1">
    <g
       fill="#000000"
       fill-opacity="1"
       id="g2"
       transform="matrix(1.33333,0,0,1.33333,-3.199,-2.501)">
      <g
         id="use1"
         transform="translate(1.993,6.2820001)">
        <path
           d="M 3.71875,-3.765625 C 3.53125,-4.140625 3.25,-4.40625 2.796875,-4.40625 c -1.15625,0 -2.390625,1.46875 -2.390625,2.921875 0,0.9375 0.546875,1.59375 1.3125,1.59375 0.203125,0 0.703125,-0.046875 1.296875,-0.75 0.078125,0.421875 0.4375,0.75 0.90625,0.75 0.359375,0 0.578125,-0.234375 0.75,-0.546875 0.15625,-0.359375 0.296875,-0.96875 0.296875,-0.984375 0,-0.109375 -0.09375,-0.109375 -0.125,-0.109375 -0.09375,0 -0.109375,0.046875 -0.140625,0.1875 -0.171875,0.640625 -0.34375,1.234375 -0.75,1.234375 -0.28125,0 -0.296875,-0.265625 -0.296875,-0.453125 0,-0.21875 0.015625,-0.3125 0.125,-0.75 C 3.890625,-1.71875 3.90625,-1.828125 4,-2.203125 L 4.359375,-3.59375 c 0.0625,-0.28125 0.0625,-0.296875 0.0625,-0.34375 0,-0.171875 -0.109375,-0.265625 -0.28125,-0.265625 -0.25,0 -0.390625,0.21875 -0.421875,0.4375 z M 3.078125,-1.1875 C 3.015625,-1 3.015625,-0.984375 2.875,-0.8125 2.4375,-0.265625 2.03125,-0.109375 1.75,-0.109375 c -0.5,0 -0.640625,-0.546875 -0.640625,-0.9375 0,-0.5 0.3125,-1.71875 0.546875,-2.1875 0.3125,-0.578125 0.75,-0.953125 1.15625,-0.953125 0.640625,0 0.78125,0.8125 0.78125,0.875 0,0.0625 -0.015625,0.125 -0.03125,0.171875 z m 0,0"
           id="path2" />
      </g>
    </g>
  </g>
  <g
     inkscape:label=""
     transform="translate(133.10291,177.95216)"
     id="g5">
    <g
       fill="#000000"
       fill-opacity="1"
       id="g4"
       transform="matrix(1.33333,0,0,1.33333,-3.28233,-2.65217)">
      <g
         id="g3"
         transform="translate(1.993,8.9110003)">
        <path
           d="m 2.375,-6.8125 c 0,0 0,-0.109375 -0.125,-0.109375 -0.21875,0 -0.953125,0.078125 -1.21875,0.109375 -0.078125,0 -0.1875,0.015625 -0.1875,0.1875 0,0.125 0.09375,0.125 0.25,0.125 0.46875,0 0.484375,0.0625 0.484375,0.171875 0,0.0625 -0.078125,0.40625 -0.125,0.609375 l -0.828125,3.25 c -0.109375,0.5 -0.15625,0.671875 -0.15625,1.015625 0,0.9375 0.53125,1.5625 1.265625,1.5625 1.171875,0 2.40625,-1.484375 2.40625,-2.921875 0,-0.90625 -0.53125,-1.59375 -1.328125,-1.59375 -0.453125,0 -0.875,0.296875 -1.171875,0.59375 z M 1.453125,-3.046875 C 1.5,-3.265625 1.5,-3.28125 1.59375,-3.390625 2.078125,-4.03125 2.53125,-4.1875 2.796875,-4.1875 c 0.359375,0 0.625,0.296875 0.625,0.9375 0,0.59375 -0.328125,1.734375 -0.515625,2.109375 -0.328125,0.671875 -0.78125,1.03125 -1.171875,1.03125 -0.34375,0 -0.671875,-0.265625 -0.671875,-1 0,-0.203125 0,-0.390625 0.15625,-1.015625 z m 0,0"
           id="path3" />
      </g>
    </g>
  </g>
  <g
     inkscape:label=""
     transform="translate(105.25267,83.550695)"
     id="g8">
    <g
       fill="#000000"
       fill-opacity="1"
       id="g7"
       transform="matrix(1.33333,0,0,1.33333,-3.199,-2.501)">
      <g
         id="g6"
         transform="translate(1.993,6.2820001)">
        <path
           d="m 3.953125,-3.78125 c -0.171875,0 -0.296875,0 -0.4375,0.125 -0.171875,0.15625 -0.1875,0.328125 -0.1875,0.390625 0,0.25 0.1875,0.359375 0.375,0.359375 0.28125,0 0.546875,-0.25 0.546875,-0.640625 0,-0.484375 -0.46875,-0.859375 -1.171875,-0.859375 -1.34375,0 -2.671875,1.421875 -2.671875,2.828125 0,0.90625 0.578125,1.6875 1.625,1.6875 1.421875,0 2.25,-1.0625 2.25,-1.171875 0,-0.0625 -0.046875,-0.140625 -0.109375,-0.140625 -0.0625,0 -0.078125,0.03125 -0.140625,0.109375 -0.78125,0.984375 -1.875,0.984375 -1.984375,0.984375 -0.625,0 -0.90625,-0.484375 -0.90625,-1.09375 0,-0.40625 0.203125,-1.375 0.546875,-1.984375 0.3125,-0.578125 0.859375,-1 1.40625,-1 0.328125,0 0.71875,0.125 0.859375,0.40625 z m 0,0"
           id="path5" />
      </g>
    </g>
  </g>
</svg>
