<?xml version="1.0" encoding="UTF-8" standalone="no"?>
<svg
   viewBox="0 0 263.40551 189.79702"
   version="1.1"
   id="svg1"
   sodipodi:docname="right_triangle_svg.svg"
   width="263.40552"
   height="189.79703"
   inkscape:version="1.3.2 (091e20e, 2023-11-25, custom)"
   xmlns:inkscape="http://www.inkscape.org/namespaces/inkscape"
   xmlns:sodipodi="http://sodipodi.sourceforge.net/DTD/sodipodi-0.dtd"
   xmlns="http://www.w3.org/2000/svg"
   xmlns:svg="http://www.w3.org/2000/svg">
  <sodipodi:namedview
     id="namedview1"
     pagecolor="#ffffff"
     bordercolor="#000000"
     borderopacity="0.25"
     inkscape:showpageshadow="2"
     inkscape:pageopacity="0.0"
     inkscape:pagecheckerboard="0"
     inkscape:deskcolor="#d1d1d1"
     showgrid="false"
     inkscape:zoom="2.7647875"
     inkscape:cx="129.48554"
     inkscape:cy="117.18803"
     inkscape:window-width="1718"
     inkscape:window-height="1360"
     inkscape:window-x="1713"
     inkscape:window-y="0"
     inkscape:window-maximized="0"
     inkscape:current-layer="svg1" />
  <defs
     id="defs1">
    <rect
       x="150.46364"
       y="117.91141"
       width="3.255223"
       height="42.317902"
       id="rect11" />
    <rect
       x="59.317398"
       y="92.231316"
       width="24.595018"
       height="17.722881"
       id="rect5" />
    <rect
       x="62.21093"
       y="66.551224"
       width="90.061172"
       height="49.190037"
       id="rect4" />
    <rect
       x="62.57262"
       y="85.720871"
       width="51.721878"
       height="28.211933"
       id="rect3" />
    <rect
       x="52.80695"
       y="103.08206"
       width="112.48604"
       height="56.062176"
       id="rect2" />
  </defs>
  <!-- Right-angled triangle flipped horizontally -->
  <polygon
     points="350,80 103.6,250 350,250 "
     fill="none"
     stroke="#000000"
     stroke-width="3"
     id="polygon1"
     transform="translate(-98.784521,-77.14273)" />
  <!-- Right angle marker -->
  <path
     d="m 251.21548,157.85727 h -15 v 15"
     fill="none"
     stroke="#000000"
     stroke-width="2"
     id="path1" />
  <text
     xml:space="preserve"
     style="fill:none;stroke-width:2.89134"
     x="45.892052"
     y="149.9995"
     id="text1"><tspan
       sodipodi:role="line"
       id="tspan1"
       x="45.892052"
       y="149.9995">y</tspan></text>
  <g
     inkscape:label=""
     transform="translate(104.89098,176.5054)"
     id="g11">
    <g
       fill="#000000"
       fill-opacity="1"
       id="g6"
       transform="matrix(1.33333,0,0,1.33333,-3.6365,-3.177)">
      <g
         id="use5"
         transform="translate(1.993,2.789)">
        <path
           d="m 3.875,8.515625 -1.75,-3.875 C 2.046875,4.484375 2,4.484375 1.96875,4.484375 c 0,0 -0.0625,0 -0.171875,0.078125 l -0.9375,0.71875 c -0.125,0.109375 -0.125,0.125 -0.125,0.15625 0,0.0625 0.015625,0.109375 0.09375,0.109375 0.0625,0 0.234375,-0.140625 0.34375,-0.21875 C 1.21875,5.28125 1.375,5.171875 1.484375,5.09375 l 1.96875,4.3125 C 3.515625,9.5625 3.5625,9.5625 3.65625,9.5625 c 0.15625,0 0.1875,-0.046875 0.25,-0.1875 L 8.4375,0 C 8.5,-0.140625 8.5,-0.171875 8.5,-0.203125 8.5,-0.296875 8.421875,-0.40625 8.296875,-0.40625 c -0.078125,0 -0.140625,0.0625 -0.21875,0.21875 z m 0,0"
           id="path10" />
      </g>
    </g>
    <path
       fill="none"
       stroke-width="0.398"
       stroke-linecap="butt"
       stroke-linejoin="miter"
       stroke="#000000"
       stroke-opacity="1"
       stroke-miterlimit="10"
       d="M 7.5695,0.20709372 H 34.889812"
       id="path6"
       transform="scale(1.33333)" />
    <g
       fill="#000000"
       fill-opacity="1"
       id="g7"
       transform="matrix(1.33333,0,0,1.33333,-3.6365,-3.177)">
      <g
         id="use6"
         transform="translate(10.295,11.092)">
        <path
           d="m 2.9375,-6.375 c 0,-0.25 0,-0.265625 -0.234375,-0.265625 C 2.078125,-6 1.203125,-6 0.890625,-6 v 0.3125 c 0.203125,0 0.78125,0 1.296875,-0.265625 v 5.171875 c 0,0.359375 -0.03125,0.46875 -0.921875,0.46875 h -0.3125 V 0 c 0.34375,-0.03125 1.203125,-0.03125 1.609375,-0.03125 0.390625,0 1.265625,0 1.609375,0.03125 v -0.3125 h -0.3125 c -0.90625,0 -0.921875,-0.109375 -0.921875,-0.46875 z m 0,0"
           id="path11" />
      </g>
    </g>
    <g
       fill="#000000"
       fill-opacity="1"
       id="g8"
       transform="matrix(1.33333,0,0,1.33333,-3.6365,-3.177)">
      <g
         id="use7"
         transform="translate(17.49,11.092)">
        <path
           d="m 6.5625,-2.296875 c 0.171875,0 0.359375,0 0.359375,-0.203125 0,-0.1875 -0.1875,-0.1875 -0.359375,-0.1875 H 1.171875 c -0.171875,0 -0.34375,0 -0.34375,0.1875 0,0.203125 0.171875,0.203125 0.34375,0.203125 z m 0,0"
           id="path12" />
      </g>
    </g>
    <g
       fill="#000000"
       fill-opacity="1"
       id="g9"
       transform="matrix(1.33333,0,0,1.33333,-3.6365,-3.177)">
      <g
         id="use8"
         transform="translate(27.452999,11.092)">
        <path
           d="M 3.328125,-3.015625 C 3.390625,-3.265625 3.625,-4.1875 4.3125,-4.1875 c 0.046875,0 0.296875,0 0.5,0.125 C 4.53125,-4 4.34375,-3.765625 4.34375,-3.515625 c 0,0.15625 0.109375,0.34375 0.375,0.34375 0.21875,0 0.53125,-0.171875 0.53125,-0.578125 0,-0.515625 -0.578125,-0.65625 -0.921875,-0.65625 -0.578125,0 -0.921875,0.53125 -1.046875,0.75 -0.25,-0.65625 -0.78125,-0.75 -1.078125,-0.75 -1.03125,0 -1.609375,1.28125 -1.609375,1.53125 0,0.109375 0.109375,0.109375 0.125,0.109375 0.078125,0 0.109375,-0.03125 0.125,-0.109375 0.34375,-1.0625 1,-1.3125 1.34375,-1.3125 0.1875,0 0.53125,0.09375 0.53125,0.671875 0,0.3125 -0.171875,0.96875 -0.53125,2.375 -0.15625,0.609375 -0.515625,1.03125 -0.953125,1.03125 -0.0625,0 -0.28125,0 -0.5,-0.125 0.25,-0.0625 0.46875,-0.265625 0.46875,-0.546875 0,-0.265625 -0.21875,-0.34375 -0.359375,-0.34375 -0.3125,0 -0.546875,0.25 -0.546875,0.578125 0,0.453125 0.484375,0.65625 0.921875,0.65625 0.671875,0 1.03125,-0.703125 1.046875,-0.75 0.125,0.359375 0.484375,0.75 1.078125,0.75 1.03125,0 1.59375,-1.28125 1.59375,-1.53125 0,-0.109375 -0.078125,-0.109375 -0.109375,-0.109375 -0.09375,0 -0.109375,0.046875 -0.140625,0.109375 -0.328125,1.078125 -1,1.3125 -1.3125,1.3125 -0.390625,0 -0.546875,-0.3125 -0.546875,-0.65625 0,-0.21875 0.046875,-0.4375 0.15625,-0.875 z m 0,0"
           id="path13" />
      </g>
    </g>
    <g
       fill="#000000"
       fill-opacity="1"
       id="g10"
       transform="matrix(1.33333,0,0,1.33333,-3.6365,-3.177)">
      <g
         id="use9"
         transform="translate(33.146999,8.2130003)">
        <path
           d="M 3.515625,-1.265625 H 3.28125 c -0.015625,0.15625 -0.09375,0.5625 -0.1875,0.625 C 3.046875,-0.59375 2.515625,-0.59375 2.40625,-0.59375 H 1.125 c 0.734375,-0.640625 0.984375,-0.84375 1.390625,-1.171875 0.515625,-0.40625 1,-0.84375 1,-1.5 0,-0.84375 -0.734375,-1.359375 -1.625,-1.359375 -0.859375,0 -1.453125,0.609375 -1.453125,1.25 0,0.34375 0.296875,0.390625 0.375,0.390625 0.15625,0 0.359375,-0.125 0.359375,-0.375 0,-0.125 -0.046875,-0.375 -0.40625,-0.375 C 0.984375,-4.21875 1.453125,-4.375 1.78125,-4.375 c 0.703125,0 1.0625,0.546875 1.0625,1.109375 0,0.609375 -0.4375,1.078125 -0.65625,1.328125 L 0.515625,-0.265625 C 0.4375,-0.203125 0.4375,-0.1875 0.4375,0 h 2.875 z m 0,0"
           id="path14" />
      </g>
    </g>
  </g>
  <text
     xml:space="preserve"
     id="text11"
     style="font-family:Arial;-inkscape-font-specification:Arial;white-space:pre;shape-inside:url(#rect11);display:inline;fill:#000000;stroke-width:2.89134" />
  <g
     inkscape:label=""
     transform="translate(109.59297,78.125323)"
     id="g12">
    <g
       fill="#000000"
       fill-opacity="1"
       id="g2"
       transform="matrix(1.33333,0,0,1.33333,-3.84483,-2.36183)">
      <g
         id="use1"
         transform="translate(1.993,8.4119997)">
        <path
           d="m 2.9375,-6.375 c 0,-0.25 0,-0.265625 -0.234375,-0.265625 C 2.078125,-6 1.203125,-6 0.890625,-6 v 0.3125 c 0.203125,0 0.78125,0 1.296875,-0.265625 v 5.171875 c 0,0.359375 -0.03125,0.46875 -0.921875,0.46875 h -0.3125 V 0 c 0.34375,-0.03125 1.203125,-0.03125 1.609375,-0.03125 0.390625,0 1.265625,0 1.609375,0.03125 v -0.3125 h -0.3125 c -0.90625,0 -0.921875,-0.109375 -0.921875,-0.46875 z m 0,0"
           id="path2" />
      </g>
    </g>
  </g>
  <g
     inkscape:label=""
     transform="translate(256.80139,88.976067)"
     id="g17">
    <g
       fill="#000000"
       fill-opacity="1"
       id="g16"
       transform="matrix(1.33333,0,0,1.33333,-3.05317,-2.501)">
      <g
         id="g15"
         transform="translate(1.993,6.2820001)">
        <path
           d="M 3.328125,-3.015625 C 3.390625,-3.265625 3.625,-4.1875 4.3125,-4.1875 c 0.046875,0 0.296875,0 0.5,0.125 C 4.53125,-4 4.34375,-3.765625 4.34375,-3.515625 c 0,0.15625 0.109375,0.34375 0.375,0.34375 0.21875,0 0.53125,-0.171875 0.53125,-0.578125 0,-0.515625 -0.578125,-0.65625 -0.921875,-0.65625 -0.578125,0 -0.921875,0.53125 -1.046875,0.75 -0.25,-0.65625 -0.78125,-0.75 -1.078125,-0.75 -1.03125,0 -1.609375,1.28125 -1.609375,1.53125 0,0.109375 0.109375,0.109375 0.125,0.109375 0.078125,0 0.109375,-0.03125 0.125,-0.109375 0.34375,-1.0625 1,-1.3125 1.34375,-1.3125 0.1875,0 0.53125,0.09375 0.53125,0.671875 0,0.3125 -0.171875,0.96875 -0.53125,2.375 -0.15625,0.609375 -0.515625,1.03125 -0.953125,1.03125 -0.0625,0 -0.28125,0 -0.5,-0.125 0.25,-0.0625 0.46875,-0.265625 0.46875,-0.546875 0,-0.265625 -0.21875,-0.34375 -0.359375,-0.34375 -0.3125,0 -0.546875,0.25 -0.546875,0.578125 0,0.453125 0.484375,0.65625 0.921875,0.65625 0.671875,0 1.03125,-0.703125 1.046875,-0.75 0.125,0.359375 0.484375,0.75 1.078125,0.75 1.03125,0 1.59375,-1.28125 1.59375,-1.53125 0,-0.109375 -0.078125,-0.109375 -0.109375,-0.109375 -0.09375,0 -0.109375,0.046875 -0.140625,0.109375 -0.328125,1.078125 -1,1.3125 -1.3125,1.3125 -0.390625,0 -0.546875,-0.3125 -0.546875,-0.65625 0,-0.21875 0.046875,-0.4375 0.15625,-0.875 z m 0,0"
           id="path15" />
      </g>
    </g>
  </g>
  <g
     inkscape:label=""
     transform="translate(39.063137,158.42083)"
     id="g20">
    <g
       fill="#000000"
       fill-opacity="1"
       id="g19"
       transform="matrix(1.33333,0,0,1.33333,-3.05317,-2.501)">
      <g
         id="g18"
         transform="translate(1.993,6.2820001)">
        <path
           d="m 4.84375,-3.796875 c 0.046875,-0.140625 0.046875,-0.15625 0.046875,-0.234375 0,-0.171875 -0.140625,-0.265625 -0.296875,-0.265625 -0.09375,0 -0.25,0.0625 -0.34375,0.203125 -0.015625,0.0625 -0.109375,0.359375 -0.140625,0.546875 -0.078125,0.25 -0.140625,0.53125 -0.203125,0.796875 l -0.453125,1.796875 c -0.03125,0.140625 -0.46875,0.84375 -1.125,0.84375 -0.5,0 -0.609375,-0.4375 -0.609375,-0.8125 C 1.71875,-1.375 1.890625,-2 2.21875,-2.875 2.375,-3.28125 2.421875,-3.390625 2.421875,-3.59375 c 0,-0.4375 -0.3125,-0.8125 -0.8125,-0.8125 -0.953125,0 -1.3125,1.453125 -1.3125,1.53125 0,0.109375 0.09375,0.109375 0.109375,0.109375 0.109375,0 0.109375,-0.03125 0.15625,-0.1875 0.28125,-0.9375 0.671875,-1.234375 1.015625,-1.234375 0.078125,0 0.25,0 0.25,0.3125 0,0.25 -0.109375,0.515625 -0.171875,0.703125 -0.40625,1.0625 -0.578125,1.625 -0.578125,2.09375 0,0.890625 0.625,1.1875 1.21875,1.1875 0.390625,0 0.71875,-0.171875 1,-0.453125 -0.125,0.515625 -0.25,1.015625 -0.640625,1.546875 -0.265625,0.328125 -0.640625,0.625 -1.09375,0.625 -0.140625,0 -0.59375,-0.03125 -0.765625,-0.421875 0.15625,0 0.296875,0 0.421875,-0.125 C 1.328125,1.203125 1.421875,1.0625 1.421875,0.875 1.421875,0.5625 1.15625,0.53125 1.0625,0.53125 0.828125,0.53125 0.5,0.6875 0.5,1.171875 c 0,0.5 0.4375,0.875 1.0625,0.875 1.015625,0 2.046875,-0.90625 2.328125,-2.03125 z m 0,0"
           id="path17" />
      </g>
    </g>
  </g>
</svg>
