<?xml version="1.0" encoding="utf-8" standalone="no"?>
<!DOCTYPE svg PUBLIC "-//W3C//DTD SVG 1.1//EN"
  "http://www.w3.org/Graphics/SVG/1.1/DTD/svg11.dtd">
<svg xmlns:xlink="http://www.w3.org/1999/xlink" width="251.640625pt" height="253.038125pt" viewBox="0 0 251.640625 253.038125" xmlns="http://www.w3.org/2000/svg" version="1.1">
 <metadata>
  <rdf:RDF xmlns:dc="http://purl.org/dc/elements/1.1/" xmlns:cc="http://creativecommons.org/ns#" xmlns:rdf="http://www.w3.org/1999/02/22-rdf-syntax-ns#">
   <cc:Work>
    <dc:type rdf:resource="http://purl.org/dc/dcmitype/StillImage"/>
    <dc:date>2026-02-24T13:56:02.821634</dc:date>
    <dc:format>image/svg+xml</dc:format>
    <dc:creator>
     <cc:Agent>
      <dc:title>Matplotlib v3.10.7, https://matplotlib.org/</dc:title>
     </cc:Agent>
    </dc:creator>
   </cc:Work>
  </rdf:RDF>
 </metadata>
 <defs>
  <style type="text/css">*{stroke-linejoin: round; stroke-linecap: butt}</style>
 </defs>
 <g id="figure_1">
  <g id="patch_1">
   <path d="M 0 253.038125 
L 251.640625 253.038125 
L 251.640625 0 
L 0 0 
z
" style="fill: #ffffff"/>
  </g>
  <g id="axes_1">
   <g id="patch_2">
    <path d="M 10.8 240.158437 
L 234 240.158437 
L 234 18.398438 
L 10.8 18.398438 
z
" style="fill: #ffffff"/>
   </g>
   <g id="GridlinesCollection_1">
    <path clip-path="url(#p4ead7d335e)" style="fill: none; stroke: #b0b0b0; stroke-width: 0.8"/>
    <path d="M 24.75 240.158437 
L 24.75 18.398438 
" clip-path="url(#p4ead7d335e)" style="fill: none; stroke: #b0b0b0; stroke-width: 0.8"/>
    <path d="M 59.625 240.158437 
L 59.625 18.398438 
" clip-path="url(#p4ead7d335e)" style="fill: none; stroke: #b0b0b0; stroke-width: 0.8"/>
    <path d="M 94.5 240.158437 
L 94.5 18.398438 
" clip-path="url(#p4ead7d335e)" style="fill: none; stroke: #b0b0b0; stroke-width: 0.8"/>
    <path d="M 129.375 240.158437 
L 129.375 18.398438 
" clip-path="url(#p4ead7d335e)" style="fill: none; stroke: #b0b0b0; stroke-width: 0.8"/>
    <path d="M 164.25 240.158437 
L 164.25 18.398438 
" clip-path="url(#p4ead7d335e)" style="fill: none; stroke: #b0b0b0; stroke-width: 0.8"/>
    <path d="M 199.125 240.158437 
L 199.125 18.398438 
" clip-path="url(#p4ead7d335e)" style="fill: none; stroke: #b0b0b0; stroke-width: 0.8"/>
    <path d="M 234 240.158437 
L 234 18.398438 
" clip-path="url(#p4ead7d335e)" style="fill: none; stroke: #b0b0b0; stroke-width: 0.8"/>
    <path d="M 10.8 254.018437 
L 234 254.018437 
" clip-path="url(#p4ead7d335e)" style="fill: none; stroke: #b0b0b0; stroke-width: 0.8"/>
    <path d="M 10.8 226.298437 
L 234 226.298437 
" clip-path="url(#p4ead7d335e)" style="fill: none; stroke: #b0b0b0; stroke-width: 0.8"/>
    <path d="M 10.8 198.578437 
L 234 198.578437 
" clip-path="url(#p4ead7d335e)" style="fill: none; stroke: #b0b0b0; stroke-width: 0.8"/>
    <path d="M 10.8 170.858437 
L 234 170.858437 
" clip-path="url(#p4ead7d335e)" style="fill: none; stroke: #b0b0b0; stroke-width: 0.8"/>
    <path d="M 10.8 143.138437 
L 234 143.138437 
" clip-path="url(#p4ead7d335e)" style="fill: none; stroke: #b0b0b0; stroke-width: 0.8"/>
    <path d="M 10.8 115.418437 
L 234 115.418437 
" clip-path="url(#p4ead7d335e)" style="fill: none; stroke: #b0b0b0; stroke-width: 0.8"/>
    <path d="M 10.8 87.698437 
L 234 87.698437 
" clip-path="url(#p4ead7d335e)" style="fill: none; stroke: #b0b0b0; stroke-width: 0.8"/>
    <path d="M 10.8 59.978437 
L 234 59.978437 
" clip-path="url(#p4ead7d335e)" style="fill: none; stroke: #b0b0b0; stroke-width: 0.8"/>
    <path d="M 10.8 32.258437 
L 234 32.258437 
" clip-path="url(#p4ead7d335e)" style="fill: none; stroke: #b0b0b0; stroke-width: 0.8"/>
    <path d="M 10.8 4.538437 
L 234 4.538437 
" clip-path="url(#p4ead7d335e)" style="fill: none; stroke: #b0b0b0; stroke-width: 0.8"/>
   </g>
   <g id="line2d_1">
    <path d="M 31.947778 -1 
L 33.338409 39.179965 
L 35.450636 76.115781 
L 37.562864 100.873705 
L 39.675091 118.624052 
L 41.787318 131.973147 
L 43.899545 142.377386 
L 46.011773 150.71443 
L 48.124 157.544694 
L 50.236227 163.242812 
L 52.348455 168.068728 
L 54.460682 172.208464 
L 56.572909 175.798655 
L 58.685136 178.941917 
L 60.797364 181.716814 
L 62.909591 184.184517 
L 65.021818 186.393361 
L 67.134045 188.382048 
L 69.246273 190.181929 
L 71.3585 191.818675 
L 73.470727 193.313503 
L 75.582955 194.684104 
L 77.695182 195.945345 
L 79.807409 197.109814 
L 81.919636 198.188236 
L 84.031864 199.189809 
L 86.144091 200.122466 
L 88.256318 200.993081 
L 90.368545 201.807648 
L 92.480773 202.571409 
L 94.593 203.288974 
L 96.705227 203.96441 
L 98.817455 204.601324 
L 100.929682 205.202918 
L 103.041909 205.772051 
L 105.154136 206.311282 
L 107.266364 206.822907 
L 109.378591 207.308992 
L 111.490818 207.771405 
L 113.603045 208.211832 
L 115.715273 208.631806 
L 117.8275 209.032718 
L 119.939727 209.415839 
L 122.051955 209.782325 
L 124.164182 210.133239 
L 126.276409 210.469551 
L 128.388636 210.792155 
L 130.500864 211.101871 
L 132.613091 211.399458 
L 134.725318 211.685613 
L 136.837545 211.960984 
L 138.949773 212.226168 
L 141.062 212.48172 
L 143.174227 212.728157 
L 145.286455 212.965956 
L 147.398682 213.195565 
L 149.510909 213.4174 
L 151.623136 213.631848 
L 153.735364 213.839272 
L 155.847591 214.040012 
L 157.959818 214.234387 
L 160.072045 214.422693 
L 162.184273 214.605212 
L 164.2965 214.782205 
L 166.408727 214.953919 
L 168.520955 215.120589 
L 170.633182 215.282432 
L 172.745409 215.439655 
L 174.857636 215.592453 
L 176.969864 215.741011 
L 179.082091 215.885503 
L 181.194318 216.026093 
L 183.306545 216.162937 
L 185.418773 216.296183 
L 187.531 216.425971 
L 189.643227 216.552434 
L 191.755455 216.675698 
L 193.867682 216.795883 
L 195.979909 216.913103 
L 198.092136 217.027466 
L 200.204364 217.139076 
L 202.316591 217.24803 
L 204.428818 217.354423 
L 206.541045 217.458343 
L 208.653273 217.559876 
L 210.7655 217.659104 
L 212.877727 217.756103 
L 214.989955 217.850948 
L 217.102182 217.94371 
L 219.214409 218.034457 
L 221.326636 218.123254 
L 223.438864 218.210163 
L 225.551091 218.295244 
L 227.663318 218.378553 
L 229.775545 218.460146 
L 231.887773 218.540075 
L 234 218.61839 
" clip-path="url(#p4ead7d335e)" style="fill: none; stroke: #0000ff; stroke-width: 1.5; stroke-linecap: square"/>
   </g>
   <g id="line2d_2">
    <path d="M 38.964107 -1 
L 39.675091 10.949666 
L 41.787318 37.647856 
L 43.899545 58.456334 
L 46.011773 75.130422 
L 48.124 88.790951 
L 50.236227 100.187187 
L 52.348455 109.839018 
L 54.460682 118.11849 
L 56.572909 125.298872 
L 58.685136 131.585396 
L 60.797364 137.135191 
L 62.909591 142.070596 
L 65.021818 146.488284 
L 67.134045 150.465658 
L 69.246273 154.065421 
L 71.3585 157.338913 
L 73.470727 160.328569 
L 75.582955 163.06977 
L 77.695182 165.592253 
L 79.807409 167.92119 
L 81.919636 170.078035 
L 84.031864 172.081181 
L 86.144091 173.946494 
L 88.256318 175.687725 
L 90.368545 177.316858 
L 92.480773 178.84438 
L 94.593 180.27951 
L 96.705227 181.630383 
L 98.817455 182.90421 
L 100.929682 184.107398 
L 103.041909 185.245664 
L 105.154136 186.324126 
L 107.266364 187.347376 
L 109.378591 188.319547 
L 111.490818 189.244372 
L 113.603045 190.125226 
L 115.715273 190.965174 
L 117.8275 191.766999 
L 119.939727 192.53324 
L 122.051955 193.266213 
L 124.164182 193.96804 
L 126.276409 194.640665 
L 128.388636 195.285872 
L 130.500864 195.905305 
L 132.613091 196.500478 
L 134.725318 197.072789 
L 136.837545 197.62353 
L 138.949773 198.153898 
L 141.062 198.665003 
L 143.174227 199.157876 
L 145.286455 199.633475 
L 147.398682 200.092693 
L 149.510909 200.536362 
L 151.623136 200.965258 
L 153.735364 201.380106 
L 155.847591 201.781587 
L 157.959818 202.170336 
L 160.072045 202.546949 
L 162.184273 202.911986 
L 164.2965 203.265972 
L 166.408727 203.609401 
L 168.520955 203.94274 
L 170.633182 204.266426 
L 172.745409 204.580872 
L 174.857636 204.886469 
L 176.969864 205.183585 
L 179.082091 205.472568 
L 181.194318 205.753748 
L 183.306545 206.027436 
L 185.418773 206.293928 
L 187.531 206.553504 
L 189.643227 206.80643 
L 191.755455 207.052958 
L 193.867682 207.293328 
L 195.979909 207.527768 
L 198.092136 207.756495 
L 200.204364 207.979714 
L 202.316591 208.197623 
L 204.428818 208.410408 
L 206.541045 208.618249 
L 208.653273 208.821315 
L 210.7655 209.01977 
L 212.877727 209.213768 
L 214.989955 209.403459 
L 217.102182 209.588983 
L 219.214409 209.770477 
L 221.326636 209.948071 
L 223.438864 210.121889 
L 225.551091 210.29205 
L 227.663318 210.458669 
L 229.775545 210.621854 
L 231.887773 210.781712 
L 234 210.938342 
" clip-path="url(#p4ead7d335e)" style="fill: none; stroke: #0000ff; stroke-width: 1.5; stroke-linecap: square"/>
   </g>
   <g id="line2d_3">
    <path d="M 53.065382 -1 
L 54.460682 9.938543 
L 56.572909 24.299307 
L 58.685136 36.872354 
L 60.797364 47.971944 
L 62.909591 57.842754 
L 65.021818 66.678131 
L 67.134045 74.632878 
L 69.246273 81.832405 
L 71.3585 88.379389 
L 73.470727 94.3587 
L 75.582955 99.841102 
L 77.695182 104.886068 
L 79.807409 109.543943 
L 81.919636 113.857632 
L 84.031864 117.863925 
L 86.144091 121.59455 
L 88.256318 125.077013 
L 90.368545 128.335279 
L 92.480773 131.390322 
L 94.593 134.260582 
L 96.705227 136.962329 
L 98.817455 139.509982 
L 100.929682 141.916358 
L 103.041909 144.192891 
L 105.154136 146.349815 
L 107.266364 148.396314 
L 109.378591 150.340656 
L 111.490818 152.190306 
L 113.603045 153.952015 
L 115.715273 155.63191 
L 117.8275 157.23556 
L 119.939727 158.768042 
L 122.051955 160.233989 
L 124.164182 161.637643 
L 126.276409 162.982892 
L 128.388636 164.273307 
L 130.500864 165.512173 
L 132.613091 166.702519 
L 134.725318 167.847141 
L 136.837545 168.948623 
L 138.949773 170.009359 
L 141.062 171.031569 
L 143.174227 172.017315 
L 145.286455 172.968513 
L 147.398682 173.886949 
L 149.510909 174.774286 
L 151.623136 175.632078 
L 153.735364 176.461775 
L 155.847591 177.264737 
L 157.959818 178.042235 
L 160.072045 178.795461 
L 162.184273 179.525534 
L 164.2965 180.233506 
L 166.408727 180.920365 
L 168.520955 181.587042 
L 170.633182 182.234414 
L 172.745409 182.863307 
L 174.857636 183.4745 
L 176.969864 184.068732 
L 179.082091 184.646698 
L 181.194318 185.209058 
L 183.306545 185.756434 
L 185.418773 186.289419 
L 187.531 186.808571 
L 189.643227 187.314423 
L 191.755455 187.807479 
L 193.867682 188.288219 
L 195.979909 188.757099 
L 198.092136 189.214552 
L 200.204364 189.66099 
L 202.316591 190.096808 
L 204.428818 190.522379 
L 206.541045 190.93806 
L 208.653273 191.344193 
L 210.7655 191.741102 
L 212.877727 192.129099 
L 214.989955 192.50848 
L 217.102182 192.879529 
L 219.214409 193.242517 
L 221.326636 193.597705 
L 223.438864 193.945341 
L 225.551091 194.285663 
L 227.663318 194.6189 
L 229.775545 194.945271 
L 231.887773 195.264986 
L 234 195.578246 
" clip-path="url(#p4ead7d335e)" style="fill: none; stroke: #0000ff; stroke-width: 1.5; stroke-linecap: square"/>
   </g>
   <g id="line2d_4">
    <path d="M 67.173144 -1 
L 69.246273 9.599389 
L 71.3585 19.419865 
L 73.470727 28.388831 
L 75.582955 36.612435 
L 77.695182 44.179883 
L 79.807409 51.166696 
L 81.919636 57.637229 
L 84.031864 63.646669 
L 86.144091 69.242607 
L 88.256318 74.466301 
L 90.368545 79.3537 
L 92.480773 83.936265 
L 94.593 88.241654 
L 96.705227 92.294275 
L 98.817455 96.115754 
L 100.929682 99.725318 
L 103.041909 103.140118 
L 105.154136 106.375503 
L 107.266364 109.445252 
L 109.378591 112.361766 
L 111.490818 115.13624 
L 113.603045 117.778804 
L 115.715273 120.298646 
L 117.8275 122.704121 
L 119.939727 125.002844 
L 122.051955 127.201765 
L 124.164182 129.307246 
L 126.276409 131.325119 
L 128.388636 133.260741 
L 130.500864 135.119041 
L 132.613091 136.90456 
L 134.725318 138.621492 
L 136.837545 140.273715 
L 138.949773 141.86482 
L 141.062 143.398135 
L 143.174227 144.876754 
L 145.286455 146.303551 
L 147.398682 147.681205 
L 149.510909 149.01221 
L 151.623136 150.298898 
L 153.735364 151.543444 
L 155.847591 152.747887 
L 157.959818 153.914134 
L 160.072045 155.043972 
L 162.184273 156.139082 
L 164.2965 157.20104 
L 166.408727 158.231329 
L 168.520955 159.231345 
L 170.633182 160.202402 
L 172.745409 161.145741 
L 174.857636 162.062532 
L 176.969864 162.95388 
L 179.082091 163.820829 
L 181.194318 164.664368 
L 183.306545 165.485433 
L 185.418773 166.284909 
L 187.531 167.063638 
L 189.643227 167.822416 
L 191.755455 168.562 
L 193.867682 169.28311 
L 195.979909 169.98643 
L 198.092136 170.672609 
L 200.204364 171.342267 
L 202.316591 171.995993 
L 204.428818 172.634349 
L 206.541045 173.257871 
L 208.653273 173.867071 
L 210.7655 174.462435 
L 212.877727 175.04443 
L 214.989955 175.613501 
L 217.102182 176.170075 
L 219.214409 176.714557 
L 221.326636 177.247339 
L 223.438864 177.768793 
L 225.551091 178.279276 
L 227.663318 178.779132 
L 229.775545 179.268688 
L 231.887773 179.748261 
L 234 180.218151 
" clip-path="url(#p4ead7d335e)" style="fill: none; stroke: #0000ff; stroke-width: 1.5; stroke-linecap: square"/>
   </g>
   <g id="line2d_5">
    <path d="M 81.327929 -1 
L 81.919636 1.416826 
L 84.031864 9.429413 
L 86.144091 16.890663 
L 88.256318 23.855589 
L 90.368545 30.37212 
L 92.480773 36.482207 
L 94.593 42.222726 
L 96.705227 47.626221 
L 98.817455 52.721527 
L 100.929682 57.534278 
L 103.041909 62.087345 
L 105.154136 66.401192 
L 107.266364 70.49419 
L 109.378591 74.382875 
L 111.490818 78.082174 
L 113.603045 81.605592 
L 115.715273 84.965382 
L 117.8275 88.172683 
L 119.939727 91.237646 
L 122.051955 94.16954 
L 124.164182 96.976849 
L 126.276409 99.667346 
L 128.388636 102.248176 
L 130.500864 104.725908 
L 132.613091 107.1066 
L 134.725318 109.395844 
L 136.837545 111.598808 
L 138.949773 113.72028 
L 141.062 115.764701 
L 143.174227 117.736193 
L 145.286455 119.638589 
L 147.398682 121.475461 
L 149.510909 123.250135 
L 151.623136 124.965718 
L 153.735364 126.625113 
L 155.847591 128.231037 
L 157.959818 129.786032 
L 160.072045 131.292484 
L 162.184273 132.752631 
L 164.2965 134.168574 
L 166.408727 135.542293 
L 168.520955 136.875647 
L 170.633182 138.17039 
L 172.745409 139.428176 
L 174.857636 140.650563 
L 176.969864 141.839027 
L 179.082091 142.994959 
L 181.194318 144.119678 
L 183.306545 145.214431 
L 185.418773 146.2804 
L 187.531 147.318704 
L 189.643227 148.330408 
L 191.755455 149.316521 
L 193.867682 150.278001 
L 195.979909 151.215761 
L 198.092136 152.130666 
L 200.204364 153.023543 
L 202.316591 153.895178 
L 204.428818 154.74632 
L 206.541045 155.577683 
L 208.653273 156.389948 
L 210.7655 157.183767 
L 212.877727 157.959761 
L 214.989955 158.718523 
L 217.102182 159.46062 
L 219.214409 160.186597 
L 221.326636 160.896973 
L 223.438864 161.592245 
L 225.551091 162.272889 
L 227.663318 162.939363 
L 229.775545 163.592105 
L 231.887773 164.231535 
L 234 164.858055 
" clip-path="url(#p4ead7d335e)" style="fill: none; stroke: #0000ff; stroke-width: 1.5; stroke-linecap: square"/>
   </g>
   <g id="line2d_6">
    <path d="M 95.467429 -1 
L 96.705227 2.958167 
L 98.817455 9.327299 
L 100.929682 15.343238 
L 103.041909 21.034571 
L 105.154136 26.42688 
L 107.266364 31.543128 
L 109.378591 36.403985 
L 111.490818 41.028108 
L 113.603045 45.432381 
L 115.715273 49.632118 
L 117.8275 53.641244 
L 119.939727 57.472448 
L 122.051955 61.137316 
L 124.164182 64.646451 
L 126.276409 68.009574 
L 128.388636 71.235611 
L 130.500864 74.332776 
L 132.613091 77.308641 
L 134.725318 80.170195 
L 136.837545 82.9239 
L 138.949773 85.575741 
L 141.062 88.131267 
L 143.174227 90.595632 
L 145.286455 92.973627 
L 147.398682 95.269716 
L 149.510909 97.488059 
L 151.623136 99.632538 
L 153.735364 101.706782 
L 155.847591 103.714187 
L 157.959818 105.657931 
L 160.072045 107.540996 
L 162.184273 109.366179 
L 164.2965 111.136109 
L 166.408727 112.853257 
L 168.520955 114.519949 
L 170.633182 116.138378 
L 172.745409 117.71061 
L 174.857636 119.238595 
L 176.969864 120.724174 
L 179.082091 122.16909 
L 181.194318 123.574989 
L 183.306545 124.943429 
L 185.418773 126.27589 
L 187.531 127.573771 
L 189.643227 128.838401 
L 191.755455 130.071042 
L 193.867682 131.272892 
L 195.979909 132.445091 
L 198.092136 133.588723 
L 200.204364 134.70482 
L 202.316591 135.794363 
L 204.428818 136.85829 
L 206.541045 137.897494 
L 208.653273 138.912826 
L 210.7655 139.9051 
L 212.877727 140.875092 
L 214.989955 141.823544 
L 217.102182 142.751166 
L 219.214409 143.658637 
L 221.326636 144.546607 
L 223.438864 145.415696 
L 225.551091 146.266502 
L 227.663318 147.099595 
L 229.775545 147.915522 
L 231.887773 148.714809 
L 234 149.49796 
" clip-path="url(#p4ead7d335e)" style="fill: none; stroke: #0000ff; stroke-width: 1.5; stroke-linecap: square"/>
   </g>
   <g id="mpl_toolkits.axisartist.axis_artist_1">
    <defs>
     <path id="m99c989b13e" d="M 0 0 
L 0 -3.5 
" style="stroke: #000000; stroke-width: 0.8"/>
    </defs>
    <g>
     <use xlink:href="#m99c989b13e" x="24.75" y="226.298437" style="fill: none; stroke: #000000; stroke-width: 0.8"/>
    </g>
    <g>
     <use xlink:href="#m99c989b13e" x="59.625" y="226.298437" style="fill: none; stroke: #000000; stroke-width: 0.8"/>
    </g>
    <g>
     <use xlink:href="#m99c989b13e" x="94.5" y="226.298437" style="fill: none; stroke: #000000; stroke-width: 0.8"/>
    </g>
    <g>
     <use xlink:href="#m99c989b13e" x="129.375" y="226.298437" style="fill: none; stroke: #000000; stroke-width: 0.8"/>
    </g>
    <g>
     <use xlink:href="#m99c989b13e" x="164.25" y="226.298437" style="fill: none; stroke: #000000; stroke-width: 0.8"/>
    </g>
    <g>
     <use xlink:href="#m99c989b13e" x="199.125" y="226.298437" style="fill: none; stroke: #000000; stroke-width: 0.8"/>
    </g>
    <g>
     <use xlink:href="#m99c989b13e" x="234" y="226.298437" style="fill: none; stroke: #000000; stroke-width: 0.8"/>
    </g>
    <g id="patch_3">
     <path d="M 10.8 226.298437 
L 234 226.298437 
" clip-path="url(#p4ead7d335e)" style="fill: none; stroke: #000000; stroke-width: 0.8; stroke-linecap: square"/>
    </g>
   </g>
   <g id="mpl_toolkits.axisartist.axis_artist_2">
    <defs>
     <path id="mb7b3b13bc9" d="M 0 0 
L 3.5 0 
" style="stroke: #000000; stroke-width: 0.8"/>
    </defs>
    <g>
     <use xlink:href="#mb7b3b13bc9" x="24.75" y="226.298437" style="fill: none; stroke: #000000; stroke-width: 0.8"/>
    </g>
    <g>
     <use xlink:href="#mb7b3b13bc9" x="24.75" y="198.578437" style="fill: none; stroke: #000000; stroke-width: 0.8"/>
    </g>
    <g>
     <use xlink:href="#mb7b3b13bc9" x="24.75" y="170.858437" style="fill: none; stroke: #000000; stroke-width: 0.8"/>
    </g>
    <g>
     <use xlink:href="#mb7b3b13bc9" x="24.75" y="143.138437" style="fill: none; stroke: #000000; stroke-width: 0.8"/>
    </g>
    <g>
     <use xlink:href="#mb7b3b13bc9" x="24.75" y="115.418437" style="fill: none; stroke: #000000; stroke-width: 0.8"/>
    </g>
    <g>
     <use xlink:href="#mb7b3b13bc9" x="24.75" y="87.698437" style="fill: none; stroke: #000000; stroke-width: 0.8"/>
    </g>
    <g>
     <use xlink:href="#mb7b3b13bc9" x="24.75" y="59.978437" style="fill: none; stroke: #000000; stroke-width: 0.8"/>
    </g>
    <g>
     <use xlink:href="#mb7b3b13bc9" x="24.75" y="32.258437" style="fill: none; stroke: #000000; stroke-width: 0.8"/>
    </g>
    <g id="patch_4">
     <path d="M 24.75 240.158437 
L 24.75 18.398438 
" clip-path="url(#p4ead7d335e)" style="fill: none; stroke: #000000; stroke-width: 0.8; stroke-linecap: square"/>
    </g>
   </g>
   <g id="text_1">
    <!-- V -->
    <g transform="translate(234 240.158437) scale(0.1 -0.1)">
     <defs>
      <path id="DejaVuSans-56" d="M 1831 0 
L 50 4666 
L 709 4666 
L 2188 738 
L 3669 4666 
L 4325 4666 
L 2547 0 
L 1831 0 
z
" transform="scale(0.015625)"/>
     </defs>
     <use xlink:href="#DejaVuSans-56"/>
    </g>
   </g>
   <g id="text_2">
    <!-- P -->
    <g transform="translate(10.8 18.398438) scale(0.1 -0.1)">
     <defs>
      <path id="DejaVuSans-50" d="M 1259 4147 
L 1259 2394 
L 2053 2394 
Q 2494 2394 2734 2622 
Q 2975 2850 2975 3272 
Q 2975 3691 2734 3919 
Q 2494 4147 2053 4147 
L 1259 4147 
z
M 628 4666 
L 2053 4666 
Q 2838 4666 3239 4311 
Q 3641 3956 3641 3272 
Q 3641 2581 3239 2228 
Q 2838 1875 2053 1875 
L 1259 1875 
L 1259 0 
L 628 0 
L 628 4666 
z
" transform="scale(0.015625)"/>
     </defs>
     <use xlink:href="#DejaVuSans-50"/>
    </g>
   </g>
  </g>
 </g>
 <defs>
  <clipPath id="p4ead7d335e">
   <rect x="10.8" y="18.398438" width="223.2" height="221.76"/>
  </clipPath>
 </defs>
</svg>
