<?xml version="1.0" encoding="utf-8" standalone="no"?>
<!DOCTYPE svg PUBLIC "-//W3C//DTD SVG 1.1//EN"
  "http://www.w3.org/Graphics/SVG/1.1/DTD/svg11.dtd">
<svg xmlns:xlink="http://www.w3.org/1999/xlink" width="248.910937pt" height="253.038125pt" viewBox="0 0 248.910937 253.038125" xmlns="http://www.w3.org/2000/svg" version="1.1">
 <metadata>
  <rdf:RDF xmlns:dc="http://purl.org/dc/elements/1.1/" xmlns:cc="http://creativecommons.org/ns#" xmlns:rdf="http://www.w3.org/1999/02/22-rdf-syntax-ns#">
   <cc:Work>
    <dc:type rdf:resource="http://purl.org/dc/dcmitype/StillImage"/>
    <dc:date>2026-02-24T13:49:00.869349</dc:date>
    <dc:format>image/svg+xml</dc:format>
    <dc:creator>
     <cc:Agent>
      <dc:title>Matplotlib v3.10.7, https://matplotlib.org/</dc:title>
     </cc:Agent>
    </dc:creator>
   </cc:Work>
  </rdf:RDF>
 </metadata>
 <defs>
  <style type="text/css">*{stroke-linejoin: round; stroke-linecap: butt}</style>
 </defs>
 <g id="figure_1">
  <g id="patch_1">
   <path d="M 0 253.038125 
L 248.910937 253.038125 
L 248.910937 0 
L 0 0 
z
" style="fill: #ffffff"/>
  </g>
  <g id="axes_1">
   <g id="patch_2">
    <path d="M 10.8 240.158437 
L 234 240.158437 
L 234 18.398438 
L 10.8 18.398438 
z
" style="fill: #ffffff"/>
   </g>
   <g id="GridlinesCollection_1">
    <path clip-path="url(#p067c27dada)" style="fill: none; stroke: #b0b0b0; stroke-width: 0.8"/>
    <path d="M 24.75 240.158437 
L 24.75 18.398438 
" clip-path="url(#p067c27dada)" style="fill: none; stroke: #b0b0b0; stroke-width: 0.8"/>
    <path d="M 59.625 240.158437 
L 59.625 18.398438 
" clip-path="url(#p067c27dada)" style="fill: none; stroke: #b0b0b0; stroke-width: 0.8"/>
    <path d="M 94.5 240.158437 
L 94.5 18.398438 
" clip-path="url(#p067c27dada)" style="fill: none; stroke: #b0b0b0; stroke-width: 0.8"/>
    <path d="M 129.375 240.158437 
L 129.375 18.398438 
" clip-path="url(#p067c27dada)" style="fill: none; stroke: #b0b0b0; stroke-width: 0.8"/>
    <path d="M 164.25 240.158437 
L 164.25 18.398438 
" clip-path="url(#p067c27dada)" style="fill: none; stroke: #b0b0b0; stroke-width: 0.8"/>
    <path d="M 199.125 240.158437 
L 199.125 18.398438 
" clip-path="url(#p067c27dada)" style="fill: none; stroke: #b0b0b0; stroke-width: 0.8"/>
    <path d="M 234 240.158437 
L 234 18.398438 
" clip-path="url(#p067c27dada)" style="fill: none; stroke: #b0b0b0; stroke-width: 0.8"/>
    <path d="M 10.8 254.018437 
L 234 254.018437 
" clip-path="url(#p067c27dada)" style="fill: none; stroke: #b0b0b0; stroke-width: 0.8"/>
    <path d="M 10.8 226.298437 
L 234 226.298437 
" clip-path="url(#p067c27dada)" style="fill: none; stroke: #b0b0b0; stroke-width: 0.8"/>
    <path d="M 10.8 198.578437 
L 234 198.578437 
" clip-path="url(#p067c27dada)" style="fill: none; stroke: #b0b0b0; stroke-width: 0.8"/>
    <path d="M 10.8 170.858437 
L 234 170.858437 
" clip-path="url(#p067c27dada)" style="fill: none; stroke: #b0b0b0; stroke-width: 0.8"/>
    <path d="M 10.8 143.138437 
L 234 143.138437 
" clip-path="url(#p067c27dada)" style="fill: none; stroke: #b0b0b0; stroke-width: 0.8"/>
    <path d="M 10.8 115.418437 
L 234 115.418437 
" clip-path="url(#p067c27dada)" style="fill: none; stroke: #b0b0b0; stroke-width: 0.8"/>
    <path d="M 10.8 87.698437 
L 234 87.698437 
" clip-path="url(#p067c27dada)" style="fill: none; stroke: #b0b0b0; stroke-width: 0.8"/>
    <path d="M 10.8 59.978437 
L 234 59.978437 
" clip-path="url(#p067c27dada)" style="fill: none; stroke: #b0b0b0; stroke-width: 0.8"/>
    <path d="M 10.8 32.258437 
L 234 32.258437 
" clip-path="url(#p067c27dada)" style="fill: none; stroke: #b0b0b0; stroke-width: 0.8"/>
    <path d="M 10.8 4.538437 
L 234 4.538437 
" clip-path="url(#p067c27dada)" style="fill: none; stroke: #b0b0b0; stroke-width: 0.8"/>
   </g>
   <g id="line2d_1">
    <path d="M 34.835183 -1 
L 35.450636 30.511198 
L 37.562864 89.742312 
L 39.675091 125.65867 
L 41.787318 149.065754 
L 43.899545 165.163897 
L 46.011773 176.707234 
L 48.124 185.265036 
L 50.236227 191.78466 
L 52.348455 196.865469 
L 54.460682 200.901675 
L 56.572909 204.161179 
L 58.685136 206.831197 
L 60.797364 209.045757 
L 62.909591 210.902853 
L 65.021818 212.475475 
L 67.134045 213.818892 
L 69.246273 214.975573 
L 71.3585 215.978589 
L 73.470727 216.854001 
L 75.582955 217.62257 
L 77.695182 218.301003 
L 79.807409 218.902861 
L 81.919636 219.439249 
L 84.031864 219.91933 
L 86.144091 220.350718 
L 88.256318 220.739782 
L 90.368545 221.091883 
L 92.480773 221.411559 
L 94.593 221.702672 
L 96.705227 221.968527 
L 98.817455 222.211963 
L 100.929682 222.435432 
L 103.041909 222.64106 
L 105.154136 222.830695 
L 107.266364 223.005955 
L 109.378591 223.168257 
L 111.490818 223.318847 
L 113.603045 223.458826 
L 115.715273 223.589167 
L 117.8275 223.710736 
L 119.939727 223.824302 
L 122.051955 223.930553 
L 124.164182 224.030104 
L 126.276409 224.123506 
L 128.388636 224.211256 
L 130.500864 224.2938 
L 132.613091 224.371543 
L 134.725318 224.44485 
L 136.837545 224.514051 
L 138.949773 224.579448 
L 141.062 224.641315 
L 143.174227 224.699901 
L 145.286455 224.755435 
L 147.398682 224.808123 
L 149.510909 224.858159 
L 151.623136 224.905716 
L 153.735364 224.950956 
L 155.847591 224.994027 
L 157.959818 225.035066 
L 160.072045 225.074198 
L 162.184273 225.111539 
L 164.2965 225.147198 
L 166.408727 225.181274 
L 168.520955 225.213858 
L 170.633182 225.245038 
L 172.745409 225.274892 
L 174.857636 225.303495 
L 176.969864 225.330915 
L 179.082091 225.357218 
L 181.194318 225.382462 
L 183.306545 225.406704 
L 185.418773 225.429996 
L 187.531 225.452387 
L 189.643227 225.473924 
L 191.755455 225.494648 
L 193.867682 225.514601 
L 195.979909 225.53382 
L 198.092136 225.55234 
L 200.204364 225.570196 
L 202.316591 225.587419 
L 204.428818 225.604037 
L 206.541045 225.62008 
L 208.653273 225.635573 
L 210.7655 225.650541 
L 212.877727 225.665008 
L 214.989955 225.678996 
L 217.102182 225.692526 
L 219.214409 225.705617 
L 221.326636 225.718288 
L 223.438864 225.730558 
L 225.551091 225.742442 
L 227.663318 225.753957 
L 229.775545 225.765118 
L 231.887773 225.775939 
L 234 225.786434 
" clip-path="url(#p067c27dada)" style="fill: none; stroke: #0000ff; stroke-width: 1.5; stroke-linecap: square"/>
   </g>
   <g id="line2d_2">
    <path d="M 38.91001 -1 
L 39.675091 25.018902 
L 41.787318 71.83307 
L 43.899545 104.029356 
L 46.011773 127.11603 
L 48.124 144.231635 
L 50.236227 157.270883 
L 52.348455 167.4325 
L 54.460682 175.504912 
L 56.572909 182.02392 
L 58.685136 187.363956 
L 60.797364 191.793076 
L 62.909591 195.507269 
L 65.021818 198.652513 
L 67.134045 201.339346 
L 69.246273 203.652708 
L 71.3585 205.65874 
L 73.470727 207.409564 
L 75.582955 208.946703 
L 77.695182 210.303568 
L 79.807409 211.507284 
L 81.919636 212.580061 
L 84.031864 213.540223 
L 86.144091 214.402999 
L 88.256318 215.181127 
L 90.368545 215.885329 
L 92.480773 216.524681 
L 94.593 217.106907 
L 96.705227 217.638617 
L 98.817455 218.125489 
L 100.929682 218.572427 
L 103.041909 218.983682 
L 105.154136 219.362953 
L 107.266364 219.713473 
L 109.378591 220.038077 
L 111.490818 220.339257 
L 113.603045 220.619214 
L 115.715273 220.879897 
L 117.8275 221.123035 
L 119.939727 221.350167 
L 122.051955 221.562669 
L 124.164182 221.76177 
L 126.276409 221.948575 
L 128.388636 222.124075 
L 130.500864 222.289163 
L 132.613091 222.444649 
L 134.725318 222.591262 
L 136.837545 222.729665 
L 138.949773 222.860459 
L 141.062 222.984193 
L 143.174227 223.101365 
L 145.286455 223.212432 
L 147.398682 223.317809 
L 149.510909 223.41788 
L 151.623136 223.512995 
L 153.735364 223.603475 
L 155.847591 223.689617 
L 157.959818 223.771694 
L 160.072045 223.849958 
L 162.184273 223.924641 
L 164.2965 223.995958 
L 166.408727 224.06411 
L 168.520955 224.129279 
L 170.633182 224.191638 
L 172.745409 224.251347 
L 174.857636 224.308552 
L 176.969864 224.363393 
L 179.082091 224.415998 
L 181.194318 224.466486 
L 183.306545 224.51497 
L 185.418773 224.561554 
L 187.531 224.606337 
L 189.643227 224.64941 
L 191.755455 224.690859 
L 193.867682 224.730764 
L 195.979909 224.769202 
L 198.092136 224.806243 
L 200.204364 224.841955 
L 202.316591 224.8764 
L 204.428818 224.909637 
L 206.541045 224.941723 
L 208.653273 224.972709 
L 210.7655 225.002645 
L 212.877727 225.031579 
L 214.989955 225.059555 
L 217.102182 225.086614 
L 219.214409 225.112796 
L 221.326636 225.138139 
L 223.438864 225.162678 
L 225.551091 225.186446 
L 227.663318 225.209476 
L 229.775545 225.231798 
L 231.887773 225.253441 
L 234 225.274431 
" clip-path="url(#p067c27dada)" style="fill: none; stroke: #0000ff; stroke-width: 1.5; stroke-linecap: square"/>
   </g>
   <g id="line2d_3">
    <path d="M 44.688187 -1 
L 46.011773 27.933622 
L 48.124 62.164833 
L 50.236227 88.243328 
L 52.348455 108.566563 
L 54.460682 124.711387 
L 56.572909 137.749403 
L 58.685136 148.429475 
L 60.797364 157.287715 
L 62.909591 164.7161 
L 65.021818 171.006589 
L 67.134045 176.380254 
L 69.246273 181.006978 
L 71.3585 185.019042 
L 73.470727 188.52069 
L 75.582955 191.594969 
L 77.695182 194.308698 
L 79.807409 196.71613 
L 81.919636 198.861684 
L 84.031864 200.782009 
L 86.144091 202.507561 
L 88.256318 204.063817 
L 90.368545 205.472221 
L 92.480773 206.750924 
L 94.593 207.915377 
L 96.705227 208.978796 
L 98.817455 209.952541 
L 100.929682 210.846417 
L 103.041909 211.668926 
L 105.154136 212.427468 
L 107.266364 213.128509 
L 109.378591 213.777716 
L 111.490818 214.380076 
L 113.603045 214.939991 
L 115.715273 215.461356 
L 117.8275 215.947632 
L 119.939727 216.401897 
L 122.051955 216.826901 
L 124.164182 217.225103 
L 126.276409 217.598712 
L 128.388636 217.949712 
L 130.500864 218.279889 
L 132.613091 218.590861 
L 134.725318 218.884087 
L 136.837545 219.160892 
L 138.949773 219.422481 
L 141.062 219.669949 
L 143.174227 219.904293 
L 145.286455 220.126426 
L 147.398682 220.337181 
L 149.510909 220.537323 
L 151.623136 220.727552 
L 153.735364 220.908513 
L 155.847591 221.080797 
L 157.959818 221.244951 
L 160.072045 221.401478 
L 162.184273 221.550844 
L 164.2965 221.693479 
L 166.408727 221.829782 
L 168.520955 221.960121 
L 170.633182 222.084839 
L 172.745409 222.204256 
L 174.857636 222.318667 
L 176.969864 222.428349 
L 179.082091 222.533558 
L 181.194318 222.634534 
L 183.306545 222.731502 
L 185.418773 222.824671 
L 187.531 222.914236 
L 189.643227 223.000382 
L 191.755455 223.08328 
L 193.867682 223.163091 
L 195.979909 223.239967 
L 198.092136 223.314049 
L 200.204364 223.385473 
L 202.316591 223.454362 
L 204.428818 223.520837 
L 206.541045 223.585008 
L 208.653273 223.64698 
L 210.7655 223.706853 
L 212.877727 223.764721 
L 214.989955 223.820672 
L 217.102182 223.874791 
L 219.214409 223.927155 
L 221.326636 223.97784 
L 223.438864 224.026918 
L 225.551091 224.074455 
L 227.663318 224.120515 
L 229.775545 224.165159 
L 231.887773 224.208444 
L 234 224.250425 
" clip-path="url(#p067c27dada)" style="fill: none; stroke: #0000ff; stroke-width: 1.5; stroke-linecap: square"/>
   </g>
   <g id="line2d_4">
    <path d="M 49.144643 -1 
L 50.236227 19.215774 
L 52.348455 49.700625 
L 54.460682 73.917862 
L 56.572909 93.474886 
L 58.685136 109.494994 
L 60.797364 122.782354 
L 62.909591 133.924932 
L 65.021818 143.360664 
L 67.134045 151.421162 
L 69.246273 158.361248 
L 71.3585 164.379344 
L 73.470727 169.631816 
L 75.582955 174.243235 
L 77.695182 178.313829 
L 79.807409 181.924976 
L 81.919636 185.143307 
L 84.031864 188.023794 
L 86.144091 190.612123 
L 88.256318 192.946507 
L 90.368545 195.059112 
L 92.480773 196.977167 
L 94.593 198.723847 
L 96.705227 200.318976 
L 98.817455 201.779593 
L 100.929682 203.120407 
L 103.041909 204.35417 
L 105.154136 205.491984 
L 107.266364 206.543544 
L 109.378591 207.517355 
L 111.490818 208.420895 
L 113.603045 209.260767 
L 115.715273 210.042815 
L 117.8275 210.772229 
L 119.939727 211.453626 
L 122.051955 212.091132 
L 124.164182 212.688436 
L 126.276409 213.24885 
L 128.388636 213.775349 
L 130.500864 214.270615 
L 132.613091 214.737072 
L 134.725318 215.176911 
L 136.837545 215.59212 
L 138.949773 215.984503 
L 141.062 216.355704 
L 143.174227 216.70722 
L 145.286455 217.04042 
L 147.398682 217.356553 
L 149.510909 217.656765 
L 151.623136 217.942109 
L 153.735364 218.21355 
L 155.847591 218.471977 
L 157.959818 218.718208 
L 160.072045 218.952999 
L 162.184273 219.177048 
L 164.2965 219.391 
L 166.408727 219.595454 
L 168.520955 219.790962 
L 170.633182 219.97804 
L 172.745409 220.157165 
L 174.857636 220.328782 
L 176.969864 220.493304 
L 179.082091 220.651118 
L 181.194318 220.802583 
L 183.306545 220.948034 
L 185.418773 221.087788 
L 187.531 221.222136 
L 189.643227 221.351354 
L 191.755455 221.475701 
L 193.867682 221.595418 
L 195.979909 221.710731 
L 198.092136 221.821855 
L 200.204364 221.92899 
L 202.316591 222.032325 
L 204.428818 222.132036 
L 206.541045 222.228293 
L 208.653273 222.321251 
L 210.7655 222.411061 
L 212.877727 222.497863 
L 214.989955 222.58179 
L 217.102182 222.662967 
L 219.214409 222.741513 
L 221.326636 222.817542 
L 223.438864 222.891158 
L 225.551091 222.962463 
L 227.663318 223.031553 
L 229.775545 223.098519 
L 231.887773 223.163447 
L 234 223.226418 
" clip-path="url(#p067c27dada)" style="fill: none; stroke: #0000ff; stroke-width: 1.5; stroke-linecap: square"/>
   </g>
   <g id="line2d_5">
    <path d="M 52.882588 -1 
L 54.460682 23.124337 
L 56.572909 49.200369 
L 58.685136 70.560512 
L 60.797364 88.276993 
L 62.909591 103.133763 
L 65.021818 115.71474 
L 67.134045 126.462071 
L 69.246273 135.715518 
L 71.3585 143.739646 
L 73.470727 150.742942 
L 75.582955 156.891501 
L 77.695182 162.318959 
L 79.807409 167.133823 
L 81.919636 171.42493 
L 84.031864 175.26558 
L 86.144091 178.716685 
L 88.256318 181.829197 
L 90.368545 184.646004 
L 92.480773 187.20341 
L 94.593 189.532317 
L 96.705227 191.659155 
L 98.817455 193.606644 
L 100.929682 195.394396 
L 103.041909 197.039415 
L 105.154136 198.556499 
L 107.266364 199.95858 
L 109.378591 201.256994 
L 111.490818 202.461714 
L 113.603045 203.581544 
L 115.715273 204.624275 
L 117.8275 205.596826 
L 119.939727 206.505356 
L 122.051955 207.355364 
L 124.164182 208.151769 
L 126.276409 208.898987 
L 128.388636 209.600986 
L 130.500864 210.261341 
L 132.613091 210.883284 
L 134.725318 211.469736 
L 136.837545 212.023347 
L 138.949773 212.546525 
L 141.062 213.04146 
L 143.174227 213.510148 
L 145.286455 213.954414 
L 147.398682 214.375924 
L 149.510909 214.776208 
L 151.623136 215.156666 
L 153.735364 215.518588 
L 155.847591 215.863156 
L 157.959818 216.191464 
L 160.072045 216.504519 
L 162.184273 216.803251 
L 164.2965 217.088521 
L 166.408727 217.361126 
L 168.520955 217.621804 
L 170.633182 217.871241 
L 172.745409 218.110074 
L 174.857636 218.338897 
L 176.969864 218.55826 
L 179.082091 218.768678 
L 181.194318 218.970631 
L 183.306545 219.164567 
L 185.418773 219.350904 
L 187.531 219.530035 
L 189.643227 219.702327 
L 191.755455 219.868122 
L 193.867682 220.027744 
L 195.979909 220.181496 
L 198.092136 220.329661 
L 200.204364 220.472508 
L 202.316591 220.610287 
L 204.428818 220.743236 
L 206.541045 220.871578 
L 208.653273 220.995522 
L 210.7655 221.115269 
L 212.877727 221.231005 
L 214.989955 221.342907 
L 217.102182 221.451144 
L 219.214409 221.555872 
L 221.326636 221.657243 
L 223.438864 221.755398 
L 225.551091 221.850472 
L 227.663318 221.942592 
L 229.775545 222.03188 
L 231.887773 222.11845 
L 234 222.202412 
" clip-path="url(#p067c27dada)" style="fill: none; stroke: #0000ff; stroke-width: 1.5; stroke-linecap: square"/>
   </g>
   <g id="line2d_6">
    <path d="M 56.188901 -1 
L 56.572909 4.925851 
L 58.685136 31.626031 
L 60.797364 53.771632 
L 62.909591 72.342595 
L 65.021818 88.068816 
L 67.134045 101.502979 
L 69.246273 113.069788 
L 71.3585 123.099948 
L 73.470727 131.854068 
L 75.582955 139.539767 
L 77.695182 146.32409 
L 79.807409 152.342669 
L 81.919636 157.706553 
L 84.031864 162.507366 
L 86.144091 166.821247 
L 88.256318 170.711887 
L 90.368545 174.232895 
L 92.480773 177.429653 
L 94.593 180.340786 
L 96.705227 182.999335 
L 98.817455 185.433696 
L 100.929682 187.668386 
L 103.041909 189.724659 
L 105.154136 191.621015 
L 107.266364 193.373616 
L 109.378591 194.996633 
L 111.490818 196.502533 
L 113.603045 197.90232 
L 115.715273 199.205734 
L 117.8275 200.421423 
L 119.939727 201.557085 
L 122.051955 202.619595 
L 124.164182 203.615102 
L 126.276409 204.549124 
L 128.388636 205.426623 
L 130.500864 206.252067 
L 132.613091 207.029495 
L 134.725318 207.76256 
L 136.837545 208.454575 
L 138.949773 209.108547 
L 141.062 209.727215 
L 143.174227 210.313075 
L 145.286455 210.868408 
L 147.398682 211.395296 
L 149.510909 211.895651 
L 151.623136 212.371224 
L 153.735364 212.823625 
L 155.847591 213.254336 
L 157.959818 213.664721 
L 160.072045 214.05604 
L 162.184273 214.429455 
L 164.2965 214.786042 
L 166.408727 215.126798 
L 168.520955 215.452645 
L 170.633182 215.764442 
L 172.745409 216.062984 
L 174.857636 216.349012 
L 176.969864 216.623216 
L 179.082091 216.886238 
L 181.194318 217.138679 
L 183.306545 217.381099 
L 185.418773 217.614021 
L 187.531 217.837935 
L 189.643227 218.053299 
L 191.755455 218.260543 
L 193.867682 218.460071 
L 195.979909 218.652261 
L 198.092136 218.837467 
L 200.204364 219.016025 
L 202.316591 219.18825 
L 204.428818 219.354436 
L 206.541045 219.514863 
L 208.653273 219.669794 
L 210.7655 219.819477 
L 212.877727 219.964147 
L 214.989955 220.104025 
L 217.102182 220.23932 
L 219.214409 220.370231 
L 221.326636 220.496944 
L 223.438864 220.619638 
L 225.551091 220.73848 
L 227.663318 220.853631 
L 229.775545 220.96524 
L 231.887773 221.073453 
L 234 221.178406 
" clip-path="url(#p067c27dada)" style="fill: none; stroke: #0000ff; stroke-width: 1.5; stroke-linecap: square"/>
   </g>
   <g id="mpl_toolkits.axisartist.axis_artist_1">
    <defs>
     <path id="m312a9c6c73" d="M 0 0 
L 0 -3.5 
" style="stroke: #000000; stroke-width: 0.8"/>
    </defs>
    <g>
     <use xlink:href="#m312a9c6c73" x="24.75" y="226.298437" style="fill: none; stroke: #000000; stroke-width: 0.8"/>
    </g>
    <g>
     <use xlink:href="#m312a9c6c73" x="59.625" y="226.298437" style="fill: none; stroke: #000000; stroke-width: 0.8"/>
    </g>
    <g>
     <use xlink:href="#m312a9c6c73" x="94.5" y="226.298437" style="fill: none; stroke: #000000; stroke-width: 0.8"/>
    </g>
    <g>
     <use xlink:href="#m312a9c6c73" x="129.375" y="226.298437" style="fill: none; stroke: #000000; stroke-width: 0.8"/>
    </g>
    <g>
     <use xlink:href="#m312a9c6c73" x="164.25" y="226.298437" style="fill: none; stroke: #000000; stroke-width: 0.8"/>
    </g>
    <g>
     <use xlink:href="#m312a9c6c73" x="199.125" y="226.298437" style="fill: none; stroke: #000000; stroke-width: 0.8"/>
    </g>
    <g>
     <use xlink:href="#m312a9c6c73" x="234" y="226.298437" style="fill: none; stroke: #000000; stroke-width: 0.8"/>
    </g>
    <g id="patch_3">
     <path d="M 10.8 226.298437 
L 234 226.298437 
" clip-path="url(#p067c27dada)" style="fill: none; stroke: #000000; stroke-width: 0.8; stroke-linecap: square"/>
    </g>
   </g>
   <g id="mpl_toolkits.axisartist.axis_artist_2">
    <defs>
     <path id="mfa7aa49405" d="M 0 0 
L 3.5 0 
" style="stroke: #000000; stroke-width: 0.8"/>
    </defs>
    <g>
     <use xlink:href="#mfa7aa49405" x="24.75" y="226.298437" style="fill: none; stroke: #000000; stroke-width: 0.8"/>
    </g>
    <g>
     <use xlink:href="#mfa7aa49405" x="24.75" y="198.578437" style="fill: none; stroke: #000000; stroke-width: 0.8"/>
    </g>
    <g>
     <use xlink:href="#mfa7aa49405" x="24.75" y="170.858437" style="fill: none; stroke: #000000; stroke-width: 0.8"/>
    </g>
    <g>
     <use xlink:href="#mfa7aa49405" x="24.75" y="143.138437" style="fill: none; stroke: #000000; stroke-width: 0.8"/>
    </g>
    <g>
     <use xlink:href="#mfa7aa49405" x="24.75" y="115.418437" style="fill: none; stroke: #000000; stroke-width: 0.8"/>
    </g>
    <g>
     <use xlink:href="#mfa7aa49405" x="24.75" y="87.698437" style="fill: none; stroke: #000000; stroke-width: 0.8"/>
    </g>
    <g>
     <use xlink:href="#mfa7aa49405" x="24.75" y="59.978437" style="fill: none; stroke: #000000; stroke-width: 0.8"/>
    </g>
    <g>
     <use xlink:href="#mfa7aa49405" x="24.75" y="32.258437" style="fill: none; stroke: #000000; stroke-width: 0.8"/>
    </g>
    <g id="patch_4">
     <path d="M 24.75 240.158437 
L 24.75 18.398438 
" clip-path="url(#p067c27dada)" style="fill: none; stroke: #000000; stroke-width: 0.8; stroke-linecap: square"/>
    </g>
   </g>
   <g id="text_1">
    <!-- r -->
    <g transform="translate(234 240.158437) scale(0.1 -0.1)">
     <defs>
      <path id="DejaVuSans-72" d="M 2631 2963 
Q 2534 3019 2420 3045 
Q 2306 3072 2169 3072 
Q 1681 3072 1420 2755 
Q 1159 2438 1159 1844 
L 1159 0 
L 581 0 
L 581 3500 
L 1159 3500 
L 1159 2956 
Q 1341 3275 1631 3429 
Q 1922 3584 2338 3584 
Q 2397 3584 2469 3576 
Q 2541 3569 2628 3553 
L 2631 2963 
z
" transform="scale(0.015625)"/>
     </defs>
     <use xlink:href="#DejaVuSans-72"/>
    </g>
   </g>
   <g id="text_2">
    <!-- F -->
    <g transform="translate(10.8 18.398438) scale(0.1 -0.1)">
     <defs>
      <path id="DejaVuSans-46" d="M 628 4666 
L 3309 4666 
L 3309 4134 
L 1259 4134 
L 1259 2759 
L 3109 2759 
L 3109 2228 
L 1259 2228 
L 1259 0 
L 628 0 
L 628 4666 
z
" transform="scale(0.015625)"/>
     </defs>
     <use xlink:href="#DejaVuSans-46"/>
    </g>
   </g>
  </g>
 </g>
 <defs>
  <clipPath id="p067c27dada">
   <rect x="10.8" y="18.398438" width="223.2" height="221.76"/>
  </clipPath>
 </defs>
</svg>
